<svg width="6" height="6" viewBox="0 0 6 6" fill="none" xmlns="http://www.w3.org/2000/svg">
<path d="M2.06941 0.899622C2.06941 0.967661 2.11106 1.01554 2.18134 1.0231C2.79566 1.10626 2.79566 1.10626 2.87115 1.68837C2.88156 1.7564 2.93102 1.79924 3.0013 1.79924C3.07158 1.79924 3.11844 1.7564 3.12885 1.68837C3.20434 1.10626 3.20434 1.10626 3.81866 1.0231C3.88894 1.01554 3.93319 0.967661 3.93319 0.899622C3.93319 0.831583 3.88894 0.783704 3.81866 0.776144C3.20434 0.692986 3.20434 0.692986 3.12885 0.110878C3.11844 0.0428391 3.07158 0 3.0013 0C2.93102 0 2.88156 0.0428391 2.87115 0.110878C2.79566 0.692986 2.79566 0.692986 2.18134 0.776144C2.11106 0.783704 2.06941 0.831583 2.06941 0.899622ZM5.26594 2.42671C5.43514 2.42671 5.5731 2.29315 5.5731 2.12936C5.5731 1.96808 5.43514 1.832 5.26594 1.832C5.09675 1.832 4.95879 1.96808 4.95879 2.12936C4.95879 2.29315 5.09675 2.42671 5.26594 2.42671ZM0.734056 2.42671C0.903254 2.42671 1.04121 2.29315 1.04121 2.12936C1.04121 1.96808 0.903254 1.832 0.734056 1.832C0.567462 1.832 0.426898 1.96808 0.426898 2.12936C0.426898 2.29315 0.567462 2.42671 0.734056 2.42671ZM3.0013 3.53045C3.1679 3.53045 3.30846 3.39437 3.30846 3.2331C3.30846 3.0693 3.1679 2.93574 3.0013 2.93574C2.8321 2.93574 2.69414 3.0693 2.69414 3.2331C2.69414 3.39437 2.8321 3.53045 3.0013 3.53045ZM0 4.38723C0 4.45527 0.0416486 4.50315 0.111931 4.51071C0.726247 4.59387 0.72885 4.59387 0.804338 5.17598C0.812148 5.24401 0.861605 5.28685 0.931887 5.28685C1.00217 5.28685 1.05163 5.24401 1.05944 5.17598C1.13492 4.59387 1.13753 4.59387 1.75184 4.51071C1.82213 4.50315 1.86377 4.45527 1.86377 4.38723C1.86377 4.31919 1.82213 4.27131 1.75184 4.26375C1.13753 4.1806 1.13492 4.1806 1.05944 3.59849C1.05163 3.53045 1.00217 3.48761 0.931887 3.48761C0.861605 3.48761 0.812148 3.53045 0.804338 3.59849C0.72885 4.1806 0.726247 4.1806 0.111931 4.26375C0.0416486 4.27131 0 4.31919 0 4.38723ZM4.13362 4.38723C4.13362 4.45527 4.17787 4.50315 4.24816 4.51071C4.86247 4.59387 4.86247 4.59387 4.93796 5.17598C4.94837 5.24401 4.99783 5.28685 5.06551 5.28685C5.13579 5.28685 5.18525 5.24401 5.19566 5.17598C5.27115 4.59387 5.27115 4.59387 5.88547 4.51071C5.95575 4.50315 6 4.45527 6 4.38723C6 4.31919 5.95575 4.27131 5.88547 4.26375C5.27115 4.1806 5.27115 4.1806 5.19566 3.59849C5.18525 3.53045 5.13579 3.48761 5.06551 3.48761C4.99783 3.48761 4.94837 3.53045 4.93796 3.59849C4.86247 4.1806 4.86247 4.1806 4.24816 4.26375C4.17787 4.27131 4.13362 4.31919 4.13362 4.38723ZM3.0013 6C3.1679 6 3.30846 5.86392 3.30846 5.70265C3.30846 5.53885 3.1679 5.40529 3.0013 5.40529C2.8321 5.40529 2.69414 5.53885 2.69414 5.70265C2.69414 5.86392 2.8321 6 3.0013 6Z" fill="#9392A9"/>
</svg>
