<svg width="7" height="10" viewBox="0 0 7 10" fill="none" xmlns="http://www.w3.org/2000/svg">
<path d="M3.5 9.1875C3.79317 9.1875 4.00064 8.96949 4.00064 8.65669V2.80361L3.96456 1.77992L5.13273 3.14959L6.16108 4.22068C6.25129 4.31546 6.37758 4.37707 6.5174 4.37707C6.79253 4.37707 7 4.15906 7 3.86049C7 3.72305 6.95039 3.59508 6.84214 3.48134L3.86985 0.353377C3.77062 0.244372 3.63531 0.1875 3.5 0.1875C3.36018 0.1875 3.22487 0.244372 3.12564 0.353377L0.157861 3.48134C0.0496134 3.59508 0 3.72305 0 3.86049C0 4.15906 0.202964 4.37707 0.478093 4.37707C0.622423 4.37707 0.748711 4.31546 0.838918 4.22068L1.86276 3.14959L3.03544 1.77518L2.99485 2.80361V8.65669C2.99485 8.96949 3.20232 9.1875 3.5 9.1875Z" fill="white"/>
</svg>
