<svg width="6" height="6" viewBox="0 0 6 6" fill="none" xmlns="http://www.w3.org/2000/svg">
<path d="M2.99855 6C4.64282 6 6 4.64217 6 3C6 1.35783 4.63992 0 2.99565 0C1.35428 0 0 1.35783 0 3C0 4.64217 1.35718 6 2.99855 6ZM2.99855 5.40232C1.66747 5.40232 0.60319 4.33172 0.60319 3C0.60319 1.66828 1.66747 0.60058 2.99565 0.60058C4.32673 0.60058 5.39681 1.66828 5.39971 3C5.40261 4.33172 4.32963 5.40232 2.99855 5.40232ZM1.53697 3.36557H2.99565C3.12905 3.36557 3.23055 3.26402 3.23055 3.13346V1.23598C3.23055 1.10542 3.12905 1.00387 2.99565 1.00387C2.86805 1.00387 2.76655 1.10542 2.76655 1.23598V2.90135H1.53697C1.40648 2.90135 1.30498 3.0029 1.30498 3.13346C1.30498 3.26402 1.40648 3.36557 1.53697 3.36557Z" fill="#9392A9"/>
</svg>
