<svg width="10" height="6" viewBox="0 0 10 6" fill="none" xmlns="http://www.w3.org/2000/svg">
<path d="M5 6C7.98529 6 10 3.70845 10 2.99825C10 2.29155 7.98162 0 5 0C2.05882 0 0 2.29155 0 2.99825C0 3.70845 2.05515 6 5 6ZM5.00368 4.90845C3.88235 4.90845 2.98897 4.03732 2.98529 3.00175C2.98162 1.9312 3.88235 1.09155 5.00368 1.09155C6.11765 1.09155 7.01838 1.93469 7.01838 3.00175C7.01838 4.03732 6.11765 4.90845 5.00368 4.90845ZM5.00368 3.71195C5.41544 3.71195 5.75735 3.39009 5.75735 3.00175C5.75735 2.60991 5.41544 2.28455 5.00368 2.28455C4.58456 2.28455 4.24632 2.60991 4.24632 3.00175C4.24632 3.39009 4.58456 3.71195 5.00368 3.71195Z" fill="#9392A9"/>
</svg>
