<svg width="6" height="6" viewBox="0 0 6 6" fill="none" xmlns="http://www.w3.org/2000/svg">
<path d="M2.99855 6C4.64282 6 6 4.64217 6 3C6 1.35783 4.63992 0 2.99565 0C1.35428 0 0 1.35783 0 3C0 4.64217 1.35718 6 2.99855 6ZM2.99855 5.40232C1.66747 5.40232 0.60319 4.33172 0.60319 3C0.60319 1.66828 1.66747 0.60058 2.99565 0.60058C4.32673 0.60058 5.39681 1.66828 5.39971 3C5.40261 4.33172 4.32963 5.40232 2.99855 5.40232ZM2.99565 1.73501C3.16095 1.73501 3.29435 1.60155 3.29435 1.43907C3.29435 1.27369 3.16385 1.14023 2.99565 1.14023C2.83615 1.14023 2.69986 1.27369 2.69986 1.43907C2.69986 1.60155 2.83325 1.73501 2.99565 1.73501ZM3.84534 2.01354C4.01063 2.01354 4.14403 1.88008 4.14403 1.7147C4.14403 1.55222 4.01063 1.41586 3.84534 1.41586C3.68294 1.41586 3.54954 1.55222 3.54954 1.7147C3.54954 1.88008 3.68294 2.01354 3.84534 2.01354ZM2.11696 2.01644C2.28226 2.01644 2.41566 1.88008 2.41566 1.7147C2.41566 1.55222 2.28226 1.41586 2.11696 1.41586C1.95167 1.41586 1.81827 1.55222 1.81827 1.7147C1.81827 1.88008 1.95167 2.01644 2.11696 2.01644ZM1.56887 2.66054C1.73417 2.66054 1.86757 2.52708 1.86757 2.3617C1.86757 2.19632 1.73417 2.06286 1.56887 2.06286C1.40648 2.06286 1.27308 2.19632 1.27308 2.3617C1.27308 2.52708 1.40648 2.66054 1.56887 2.66054ZM4.39633 2.66634C4.56162 2.66634 4.69502 2.53288 4.69502 2.3675C4.69502 2.20213 4.56162 2.06867 4.39633 2.06867C4.23103 2.06867 4.09763 2.20213 4.09763 2.3675C4.09763 2.53288 4.23103 2.66634 4.39633 2.66634ZM2.99855 4.76402C3.26535 4.76402 3.47994 4.54642 3.47994 4.2766C3.47994 4.08511 3.36394 3.91683 3.19865 3.84139V2.53868C3.19865 2.41973 3.11165 2.32979 2.99855 2.32979C2.88545 2.32979 2.79555 2.41973 2.79555 2.53868V3.84139C2.63026 3.91683 2.51426 4.08511 2.51426 4.2766C2.51426 4.54642 2.72885 4.76402 2.99855 4.76402Z" fill="#9392A9" fill-opacity="0.756863"/>
</svg>
