<svg width="8" height="6" viewBox="0 0 8 6" fill="none" xmlns="http://www.w3.org/2000/svg">
<path d="M5.63004 6C6.78052 6 7.698 5.1 7.698 3.97573C7.698 3.35534 7.38926 2.74369 7.12421 2.24854L6.06693 0.270874C5.9679 0.0873786 5.81645 0 5.63004 0C5.4378 0 5.28926 0.0902913 5.19314 0.270874L4.66596 1.25243C4.97178 1.28447 5.26013 1.38058 5.52518 1.54369C5.69994 1.64563 5.7145 1.82039 5.63295 1.93981C5.56013 2.04175 5.42615 2.08544 5.29509 2.01262C5.01839 1.8466 4.7446 1.75922 4.38926 1.76796C4.09509 2.31845 4.04266 2.42039 3.99314 2.5165C4.13877 2.48447 4.28732 2.46699 4.44751 2.46699C4.83489 2.46699 5.19606 2.56893 5.52518 2.7699C5.69412 2.86893 5.71159 3.04078 5.63586 3.16019C5.56596 3.26505 5.42907 3.31748 5.29509 3.23883C5.02421 3.07573 4.76208 2.98835 4.44751 2.98835C4.19994 2.98835 4.00188 3.03786 3.72227 3.15437C3.64072 3.38447 3.57373 3.63204 3.56208 3.8767C3.86499 3.75728 4.12712 3.6932 4.44751 3.6932C4.83489 3.6932 5.19606 3.79515 5.52518 3.99612C5.69412 4.09515 5.71159 4.2699 5.63295 4.38932C5.56305 4.49417 5.42615 4.54078 5.29509 4.46505C5.02421 4.30194 4.76208 4.21456 4.44751 4.21456C4.16208 4.21456 3.94654 4.27864 3.61159 4.42427C3.81547 5.3301 4.63683 6 5.63004 6ZM1.2145 2.86311C1.78538 2.86311 2.16402 2.66214 2.93878 2.28932C3.66402 1.93981 3.96402 1.78252 4.3514 1.77087C4.36596 1.76796 4.3747 1.76796 4.38926 1.76796L4.66596 1.25243C4.59606 1.24369 4.52324 1.24078 4.44751 1.24078C3.87081 1.24078 3.48635 1.44466 2.71159 1.81748C1.92518 2.19612 1.65431 2.34175 1.2145 2.34175C0.929067 2.34175 0.672756 2.27184 0.384406 2.09709C0.250426 2.02136 0.116445 2.06796 0.0465423 2.17282C-0.0320984 2.29223 -0.0175353 2.46408 0.154309 2.56602C0.457222 2.7466 0.812562 2.86311 1.2145 2.86311ZM1.2145 4.08932C1.78538 4.08932 2.16402 3.88835 2.93878 3.51553C3.27664 3.35243 3.51839 3.23301 3.72227 3.15437C3.79509 2.92718 3.89411 2.71456 3.99314 2.5165C3.62324 2.59515 3.2679 2.77573 2.71159 3.04369C1.92518 3.42233 1.65431 3.56796 1.2145 3.56796C0.929067 3.56796 0.672756 3.49806 0.384406 3.3233C0.250426 3.24757 0.116445 3.29417 0.0465423 3.39903C-0.0320984 3.51845 -0.020448 3.69029 0.154309 3.79223C0.457222 3.97573 0.812562 4.08932 1.2145 4.08932ZM1.2145 5.31553C1.78538 5.31553 2.16402 5.11456 2.93878 4.74175C3.21839 4.60777 3.43101 4.50291 3.61159 4.42427C3.57373 4.26116 3.55043 4.02816 3.56208 3.8767C3.32033 3.97282 3.05528 4.10388 2.71159 4.2699C1.92518 4.64854 1.65431 4.79417 1.2145 4.79417C0.929067 4.79417 0.672756 4.72427 0.384406 4.54951C0.247513 4.47379 0.11062 4.5233 0.0407171 4.63107C-0.0320984 4.7534 -0.0146227 4.91942 0.154309 5.01845C0.457222 5.20194 0.812562 5.31553 1.2145 5.31553Z" fill="#9392A9"/>
</svg>
