<svg width="4" height="6" viewBox="0 0 4 6" fill="none" xmlns="http://www.w3.org/2000/svg">
<path d="M1.61527 6C2.5022 6 3.22173 5.35106 3.22173 4.54521C3.22173 4.13298 3.03671 3.77128 2.68722 3.47872C2.62555 3.42819 2.61087 3.39628 2.61087 3.32181L2.6138 0.992021C2.6138 0.396277 2.21145 0 1.61527 0C1.01322 0 0.604993 0.396277 0.604993 0.992021L0.610866 3.32181C0.610866 3.39628 0.596182 3.42819 0.534508 3.47872C0.182085 3.76862 0 4.13298 0 4.54521C0 5.35106 0.71953 6 1.61527 6ZM1.61527 5.53723C1.00441 5.53723 0.51395 5.09043 0.51395 4.53989C0.51395 4.20213 0.690162 3.90957 0.998532 3.72074C1.08957 3.66755 1.12482 3.61702 1.12482 3.51064V1.01064C1.12482 0.678191 1.32159 0.465426 1.61527 0.465426C1.90015 0.465426 2.09692 0.678191 2.09692 1.01064V3.51064C2.09692 3.61702 2.13216 3.66755 2.2232 3.72074C2.53157 3.90957 2.70778 4.20213 2.70778 4.53989C2.70778 5.09043 2.21733 5.53723 1.61527 5.53723ZM3.17474 1.03989H3.81791C3.92952 1.03989 4 0.965426 4 0.87766C4 0.789894 3.92952 0.715426 3.81791 0.715426H3.17474C3.06314 0.715426 2.98972 0.789894 2.98972 0.87766C2.98972 0.965426 3.06314 1.03989 3.17474 1.03989ZM3.17474 1.7766H3.81791C3.92952 1.7766 4 1.70213 4 1.61436C4 1.5266 3.92952 1.45213 3.81791 1.45213H3.17474C3.06314 1.45213 2.98972 1.5266 2.98972 1.61436C2.98972 1.70213 3.06314 1.7766 3.17474 1.7766ZM3.17474 2.51862H3.81791C3.92952 2.51862 4 2.44415 4 2.35638C4 2.26862 3.92952 2.19415 3.81791 2.19415H3.17474C3.06314 2.19415 2.98972 2.26862 2.98972 2.35638C2.98972 2.44415 3.06314 2.51862 3.17474 2.51862ZM1.6094 5.17819C2 5.17819 2.31424 4.89362 2.31424 4.53723C2.31424 4.29255 2.16153 4.08777 1.93539 3.97872C1.84141 3.93351 1.81204 3.9016 1.81204 3.77394V2.41489C1.81204 2.27926 1.72394 2.19415 1.6094 2.19415C1.4978 2.19415 1.40969 2.27926 1.40969 2.41489V3.77394C1.40969 3.9016 1.38032 3.93351 1.28634 3.97872C1.06021 4.08777 0.907489 4.29255 0.907489 4.53723C0.907489 4.89362 1.22173 5.17819 1.6094 5.17819ZM3.17474 3.25798H3.81791C3.92952 3.25798 4 3.18351 4 3.09574C4 3.00798 3.92952 2.93351 3.81791 2.93351H3.17474C3.06314 2.93351 2.98972 3.00798 2.98972 3.09574C2.98972 3.18351 3.06314 3.25798 3.17474 3.25798Z" fill="#9392A9"/>
</svg>
