<svg width="24" height="24" viewBox="0 0 24 24" fill="none" xmlns="http://www.w3.org/2000/svg">
<path d="M14.6972 6.12147C14.4998 6.02095 14.2802 5.96882 14.0568 5.96882C12.3144 6.09168 12.3144 8.62708 14.0568 8.74995H18.1857C18.6883 8.75367 19.1723 8.56752 19.5409 8.22872C20.7657 7.1602 20.1105 5.012 18.4984 4.80723C17.9176 1.31873 12.8803 2.64414 14.0754 5.96882" stroke="white" stroke-width="1.5" stroke-miterlimit="10" stroke-linecap="round" stroke-linejoin="round"/>
<path d="M17.8916 4.97107C18.0852 4.87427 18.2974 4.82214 18.5134 4.81842" stroke="white" stroke-width="1.5" stroke-miterlimit="10" stroke-linecap="round" stroke-linejoin="round"/>
<path d="M11.75 20.5C6.37 20.5 2 16.13 2 10.75C2 5.37 6.37 1 11.75 1C12.16 1 12.5 1.34 12.5 1.75C12.5 2.16 12.16 2.5 11.75 2.5C7.2 2.5 3.5 6.2 3.5 10.75C3.5 15.3 7.2 19 11.75 19C16.3 19 20 15.3 20 10.75C20 10.34 20.34 10 20.75 10C21.16 10 21.5 10.34 21.5 10.75C21.5 16.13 17.13 20.5 11.75 20.5Z" fill="white"/>
<path d="M17.75 17.75L22.75 22.25" stroke="white" stroke-width="1.5" stroke-linecap="round"/>
</svg>
