<svg width="7" height="6" viewBox="0 0 7 6" fill="none" xmlns="http://www.w3.org/2000/svg">
<path d="M3.50137 2.35277C3.56145 2.35277 3.60788 2.33001 3.6707 2.27027L4.50917 1.45092C4.56379 1.39687 4.59384 1.33997 4.59384 1.26885C4.59384 1.14651 4.50644 1.05263 4.3808 1.05263C4.31526 1.05263 4.25517 1.08677 4.21147 1.13798L3.89739 1.47653L3.70347 1.72688L3.74444 1.27454V0.27027C3.74444 0.122333 3.63246 0 3.50137 0C3.36754 0 3.25556 0.122333 3.25556 0.27027V1.27454L3.29653 1.72688L3.12446 1.49929L2.78853 1.13798C2.74483 1.08677 2.68474 1.05263 2.6192 1.05263C2.49356 1.05263 2.40616 1.14651 2.40616 1.26885C2.40616 1.33997 2.43621 1.39687 2.49083 1.45092L3.3293 2.27027C3.39212 2.33001 3.43855 2.35277 3.50137 2.35277ZM4.91065 3.10953C5.00624 3.20626 5.16465 3.20626 5.27117 3.09531L5.71635 2.63158C5.8256 2.52063 5.82286 2.35846 5.72727 2.25889C5.63714 2.15932 5.47874 2.15932 5.37222 2.27027L4.92431 2.73684C4.81779 2.84495 4.81506 3.0128 4.91065 3.10953ZM1.73156 3.09531C1.83808 3.20626 1.99649 3.2091 2.08935 3.10953C2.18494 3.00996 2.18221 2.84495 2.07842 2.73684L1.63051 2.27027C1.524 2.15932 1.36832 2.16216 1.27273 2.25889C1.17714 2.35562 1.17714 2.52063 1.28365 2.63158L1.73156 3.09531ZM4.98166 4.57468C4.98166 3.72688 4.31252 3.02703 3.50137 3.02703C2.69021 3.02703 2.01834 3.72688 2.01834 4.57468C2.01834 4.75676 2.05384 4.9303 2.11939 5.08962H4.88334C4.94616 4.9303 4.98166 4.75676 4.98166 4.57468ZM0.611783 4.71977H1.24268C1.3929 4.71977 1.51034 4.60597 1.50761 4.46657C1.50488 4.32717 1.3929 4.21337 1.24268 4.21337H0.611783C0.461569 4.21337 0.34959 4.32717 0.34959 4.46657C0.34959 4.60597 0.4643 4.71977 0.611783 4.71977ZM5.76005 4.71977H6.39095C6.54116 4.71977 6.65314 4.60597 6.65314 4.46657C6.65314 4.32717 6.54116 4.21337 6.39095 4.21337H5.76005C5.60983 4.21337 5.49239 4.32717 5.49512 4.46657C5.49785 4.60597 5.60983 4.71977 5.76005 4.71977ZM0.273117 6H6.72688C6.8771 6 7 5.87482 7 5.72688C7 5.5761 6.8771 5.45377 6.72688 5.45377H0.273117C0.122903 5.45377 0 5.57895 0 5.72688C0 5.87198 0.125634 6 0.273117 6Z" fill="#9392A9"/>
</svg>
