<svg width="6" height="6" viewBox="0 0 6 6" fill="none" xmlns="http://www.w3.org/2000/svg">
<path d="M3.27419 0.273703C3.27419 0.126118 3.14785 0 3 0C2.85215 0 2.72849 0.126118 2.72849 0.273703V0.818426C2.72849 0.966011 2.85215 1.08945 3 1.08945C3.14785 1.08945 3.27419 0.966011 3.27419 0.818426V0.273703ZM4.34946 1.27191C4.24462 1.37657 4.24462 1.55098 4.35215 1.65563C4.4543 1.76029 4.63172 1.76029 4.73656 1.65295L5.12366 1.26655C5.22849 1.16458 5.22849 0.984794 5.12366 0.880143C5.01882 0.778175 4.84409 0.778175 4.73925 0.882826L4.34946 1.27191ZM1.26344 1.65295C1.36559 1.76029 1.54301 1.76029 1.64785 1.65563C1.75269 1.55367 1.75269 1.37388 1.65054 1.27191L1.26344 0.882826C1.16129 0.780859 0.983871 0.778175 0.879032 0.880143C0.774194 0.984794 0.774194 1.16458 0.876344 1.26386L1.26344 1.65295ZM3 1.58587C2.22581 1.58587 1.58333 2.22451 1.58333 3C1.58333 3.77549 2.22581 4.41413 3 4.41413C3.77419 4.41413 4.41398 3.77549 4.41398 3C4.41398 2.22451 3.77419 1.58587 3 1.58587ZM5.72849 3.2737C5.87634 3.2737 6 3.14758 6 3C6 2.85242 5.87634 2.72898 5.72849 2.72898H5.1828C5.03495 2.72898 4.91129 2.85242 4.91129 3C4.91129 3.14758 5.03495 3.2737 5.1828 3.2737H5.72849ZM0.274194 2.72898C0.123656 2.72898 0 2.85242 0 3C0 3.14758 0.123656 3.2737 0.274194 3.2737H0.817204C0.965054 3.2737 1.0914 3.14758 1.0914 3C1.0914 2.85242 0.965054 2.72898 0.817204 2.72898H0.274194ZM4.73387 4.34705C4.62903 4.2424 4.4543 4.24508 4.34946 4.34973C4.24462 4.4517 4.24462 4.62612 4.35215 4.73345L4.74194 5.11986C4.84409 5.22451 5.02151 5.22182 5.12634 5.11717C5.22849 5.01252 5.22849 4.8381 5.12366 4.73345L4.73387 4.34705ZM0.876344 4.73077C0.771505 4.83542 0.768817 5.01252 0.870968 5.11449C0.975806 5.21914 1.15591 5.22182 1.25806 5.11986L1.64785 4.73345C1.75269 4.6288 1.75269 4.4517 1.65054 4.34973C1.5457 4.24508 1.36828 4.24508 1.26344 4.34705L0.876344 4.73077ZM3.27419 5.18157C3.27419 5.03399 3.14785 4.91055 3 4.91055C2.85215 4.91055 2.72849 5.03399 2.72849 5.18157V5.7263C2.72849 5.87388 2.85215 6 3 6C3.14785 6 3.27419 5.87388 3.27419 5.7263V5.18157Z" fill="#9392A9"/>
</svg>
