<svg width="7" height="6" viewBox="0 0 7 6" fill="none" xmlns="http://www.w3.org/2000/svg">
<path d="M0.347088 2.0441C0.832161 1.89526 1.33408 1.81918 1.81241 1.81918C2.42886 1.81918 2.88362 1.9151 3.46975 1.9151C4.08619 1.9151 4.48368 1.49835 4.48368 0.955899C4.48368 0.400221 4.05588 0 3.51354 0C3.12615 0 2.77919 0.23484 2.6276 0.558986C2.5636 0.684675 2.59055 0.826902 2.72192 0.893054C2.84319 0.959206 2.99478 0.919515 3.07562 0.770673C3.14636 0.615215 3.31816 0.492833 3.51354 0.492833C3.77965 0.492833 3.98514 0.671444 3.98514 0.955899C3.98514 1.24035 3.78302 1.42227 3.46975 1.42227C2.9173 1.42227 2.45244 1.32635 1.81241 1.32635C1.26334 1.32635 0.704156 1.42227 0.195503 1.57442C0.0371803 1.61742 -0.0268224 1.75303 0.0102318 1.88534C0.0506546 2.01764 0.17866 2.09041 0.347088 2.0441ZM5.63236 3.63175C6.43071 3.63175 7 3.129 7 2.42778C7 1.7398 6.46103 1.23374 5.78395 1.23374C5.18434 1.23374 4.71948 1.63396 4.61843 2.1731C4.58474 2.32194 4.66559 2.45424 4.80033 2.48071C4.93844 2.51047 5.06981 2.43109 5.11024 2.2624C5.17087 1.94157 5.45383 1.72326 5.78395 1.72326C6.18144 1.72326 6.49808 2.01103 6.49808 2.42778C6.49808 2.85116 6.15786 3.14223 5.63236 3.14223C4.60495 3.14223 3.48659 2.5667 2.13579 2.5667C1.4385 2.5667 0.801844 2.67585 0.192134 2.88093C0.0405489 2.93054 -0.0268224 3.06284 0.0102318 3.19515C0.0506546 3.32745 0.185397 3.40353 0.347088 3.3473C0.902901 3.14884 1.47893 3.05954 2.13579 3.05954C3.47311 3.05954 4.48368 3.63175 5.63236 3.63175ZM3.47648 6C4.00872 6 4.42642 5.60639 4.42642 5.05072C4.42642 4.25028 3.59438 3.80706 2.07516 3.80706C1.45198 3.80706 0.771527 3.92282 0.195503 4.11466C0.0405489 4.16759 -0.0268224 4.29989 0.0102318 4.42889C0.0506546 4.5645 0.185397 4.64057 0.347088 4.58434C0.88269 4.39912 1.47556 4.29658 2.07516 4.29658C3.27437 4.29658 3.9245 4.59096 3.9245 5.05072C3.9245 5.33517 3.72576 5.50717 3.47648 5.50717C3.23058 5.50717 3.07899 5.3484 3.02846 5.09372C2.99141 4.9581 2.87688 4.86218 2.72192 4.88864C2.5636 4.9118 2.4996 5.05733 2.53329 5.20617C2.62087 5.6527 2.9712 6 3.47648 6Z" fill="#9392A9"/>
</svg>
